<svg xmlns="http://www.w3.org/2000/svg" xmlns:xlink="http://www.w3.org/1999/xlink" id="Layer_1" width="38" height="38" x="0" y="0" enable-background="new 0 0 38 38" version="1.0" viewBox="0 0 38 38" xml:space="preserve"><g opacity=".5"><g><g><defs><rect id="SVGID_1_" width="38" height="38"/></defs><clipPath id="SVGID_2_"><use overflow="visible" xlink:href="#SVGID_1_"/></clipPath><rect width="38" height="38" fill="#231F20" clip-path="url(#SVGID_2_)"/></g></g></g><rect width="27.752" height="28.252" x="5.124" y="4.874" fill="none"/><rect width="27.752" height="28.252" x="5.124" y="4.874" fill="none"/><rect width="27.752" height="28.252" x="5.124" y="4.874" fill="none"/><rect width="27.752" height="28.252" x="5.124" y="4.874" fill="none"/><g opacity=".5"><defs><rect id="SVGID_3_" width="27.752" height="28.252" x="5.124" y="4.874" opacity=".5"/></defs><clipPath id="SVGID_4_"><use overflow="visible" xlink:href="#SVGID_3_"/></clipPath><g clip-path="url(#SVGID_4_)"><path fill="#FFF" d="M31.751,21.5c-0.621,0-1.125,0.504-1.125,1.125v5.871L9.253,7.124h6.372c0.622,0,1.125-0.503,1.125-1.125 s-0.503-1.125-1.125-1.125H5.124v10.501c0,0.622,0.503,1.125,1.125,1.125s1.125-0.503,1.125-1.125V8.427l22.448,22.449h-7.447 c-0.621,0-1.125,0.504-1.125,1.125s0.504,1.125,1.125,1.125h10.501V22.625C32.876,22.004,32.372,21.5,31.751,21.5z"/><path fill="#FFF" d="M22.375,4.874c-0.621,0-1.125,0.503-1.125,1.125s0.504,1.125,1.125,1.125h8.251v8.251 c0,0.622,0.504,1.125,1.125,1.125s1.125-0.503,1.125-1.125V4.874H22.375z"/><path fill="#FFF" d="M15.625,30.876H7.374v-8.251c0-0.621-0.503-1.125-1.125-1.125s-1.125,0.504-1.125,1.125v10.501h10.501 c0.622,0,1.125-0.504,1.125-1.125S16.247,30.876,15.625,30.876z"/></g></g><rect width="38" height="38" fill="none"/><rect width="38" height="38" fill="none"/></svg>
