<svg xmlns="http://www.w3.org/2000/svg" xmlns:xlink="http://www.w3.org/1999/xlink" id="Layer_1" width="34.031" height="26.262" x="0" y="0" enable-background="new 0 0 34.031 26.262" version="1.0" viewBox="0 0 34.031 26.262" xml:space="preserve"><line x1="10.52" x2="32" y1="2.629" y2="2.629" fill="none" stroke="#FFF" stroke-linecap="round" stroke-miterlimit="10" stroke-width="4.063"/><path fill="#BCBCBC" d="M5.224,2.612c0,1.442-1.169,2.612-2.612,2.612C1.169,5.224,0,4.054,0,2.612C0,1.169,1.169,0,2.612,0	C4.054,0,5.224,1.169,5.224,2.612"/><line x1="10.52" x2="32" y1="13.149" y2="13.149" fill="none" stroke="#FFF" stroke-linecap="round" stroke-miterlimit="10" stroke-width="4.063"/><path fill="#BCBCBC" d="M5.224,13.131c0,1.443-1.169,2.612-2.612,2.612C1.169,15.743,0,14.574,0,13.131	c0-1.442,1.169-2.611,2.612-2.611C4.054,10.52,5.224,11.688,5.224,13.131"/><line x1="10.52" x2="32" y1="23.668" y2="23.668" fill="none" stroke="#FFF" stroke-linecap="round" stroke-miterlimit="10" stroke-width="4.063"/><path fill="#BCBCBC" d="M5.224,23.65c0,1.442-1.169,2.612-2.612,2.612C1.169,26.262,0,25.093,0,23.65s1.169-2.612,2.612-2.612	C4.054,21.039,5.224,22.208,5.224,23.65"/></svg>
