<?xml version="1.0" encoding="utf-8"?>
<!-- Generator: Adobe Illustrator 16.0.3, SVG Export Plug-In . SVG Version: 6.00 Build 0)  -->
<!DOCTYPE svg PUBLIC "-//W3C//DTD SVG 1.0//EN" "http://www.w3.org/TR/2001/REC-SVG-20010904/DTD/svg10.dtd">
<svg version="1.0" id="Layer_1" xmlns="http://www.w3.org/2000/svg" xmlns:xlink="http://www.w3.org/1999/xlink" x="0px" y="0px"
	 width="20px" height="19.901px" viewBox="0 0 20 19.901" enable-background="new 0 0 20 19.901" xml:space="preserve">
<g>
	<defs>
		<rect id="SVGID_1_" width="20" height="19.901"/>
	</defs>
	<clipPath id="SVGID_2_">
		<use xlink:href="#SVGID_1_"  overflow="visible"/>
	</clipPath>
	
		<circle clip-path="url(#SVGID_2_)" fill="none" stroke="#FFFFFF" stroke-width="2.733" stroke-miterlimit="10" cx="8.015" cy="8.015" r="6.649"/>
	<path clip-path="url(#SVGID_2_)" fill="#D8D8D8" d="M3.979,10.146c0,0-0.104-0.157-0.232-0.429
		C3.713,9.649,3.681,9.574,3.646,9.492C3.616,9.404,3.594,9.307,3.566,9.2C3.539,9.093,3.52,8.978,3.495,8.852
		C3.469,8.725,3.472,8.606,3.46,8.471C3.452,8.338,3.449,8.199,3.45,8.054C3.462,7.912,3.479,7.764,3.5,7.611
		C3.518,7.457,3.545,7.3,3.593,7.146C3.635,6.99,3.684,6.83,3.738,6.668c0.134-0.308,0.27-0.638,0.476-0.93
		c0.185-0.309,0.43-0.58,0.675-0.849c0.269-0.246,0.54-0.492,0.848-0.677c0.292-0.207,0.623-0.342,0.93-0.477
		C6.829,3.681,6.988,3.632,7.145,3.59c0.079-0.021,0.154-0.044,0.232-0.059c0.079-0.013,0.156-0.025,0.232-0.035
		c0.153-0.021,0.301-0.037,0.443-0.049c0.146-0.001,0.285,0.002,0.418,0.01c0.134,0.012,0.257,0.009,0.378,0.035
		c0.121,0.025,0.232,0.045,0.337,0.073c0.104,0.028,0.2,0.05,0.288,0.08C9.562,3.68,9.642,3.711,9.713,3.746
		c0.284,0.129,0.433,0.233,0.433,0.233s-0.154,0.12-0.398,0.275c-0.061,0.041-0.128,0.08-0.199,0.124
		c-0.07,0.053-0.145,0.101-0.223,0.157C9.169,4.641,8.999,4.746,8.827,4.882C8.74,4.947,8.65,5.008,8.559,5.07
		C8.471,5.142,8.382,5.213,8.291,5.281C8.245,5.316,8.199,5.349,8.152,5.381C8.107,5.417,8.063,5.458,8.018,5.495
		C7.928,5.571,7.836,5.643,7.743,5.713C7.57,5.88,7.378,6.018,7.208,6.189C7.023,6.341,6.862,6.522,6.681,6.681
		C6.522,6.862,6.34,7.021,6.188,7.207C6.015,7.376,5.878,7.569,5.71,7.741C5.64,7.834,5.568,7.927,5.492,8.016
		C5.456,8.062,5.414,8.105,5.378,8.15C5.345,8.197,5.312,8.244,5.277,8.289C5.209,8.381,5.138,8.47,5.066,8.558
		C5.004,8.649,4.943,8.739,4.879,8.826C4.742,9.002,4.64,9.16,4.534,9.311C4.479,9.387,4.431,9.46,4.377,9.53
		C4.333,9.606,4.294,9.679,4.253,9.743C4.097,10,3.979,10.146,3.979,10.146"/>
	
		<line clip-path="url(#SVGID_2_)" fill="none" stroke="#FFFFFF" stroke-width="2.733" stroke-linecap="round" stroke-miterlimit="10" x1="13.672" y1="13.572" x2="18.633" y2="18.534"/>
</g>
</svg>
