<svg xmlns="http://www.w3.org/2000/svg" xmlns:xlink="http://www.w3.org/1999/xlink" id="Layer_1" width="20" height="19.9" x="0" y="0" enable-background="new 0 0 20 19.9" version="1.1" viewBox="0 0 20 19.9" xml:space="preserve"><circle cx="8.015" cy="8.015" r="6.649" fill="none" stroke="#0F0F0F" stroke-miterlimit="10" stroke-width="2.733"/><path fill="#D8D8D8" d="M3.979,10.146c0,0-0.104-0.157-0.232-0.429C3.713,9.649,3.681,9.573,3.646,9.492	C3.616,9.404,3.594,9.307,3.566,9.2C3.539,9.093,3.52,8.978,3.495,8.852C3.469,8.725,3.472,8.606,3.46,8.471	C3.452,8.338,3.449,8.198,3.45,8.054c0.012-0.142,0.029-0.29,0.05-0.443C3.518,7.457,3.545,7.3,3.593,7.146	C3.635,6.99,3.684,6.83,3.738,6.668C3.872,6.36,4.008,6.03,4.214,5.738c0.185-0.309,0.43-0.579,0.675-0.849	c0.269-0.246,0.54-0.492,0.848-0.677C6.029,4.005,6.36,3.87,6.667,3.735C6.829,3.681,6.988,3.632,7.145,3.59	c0.079-0.021,0.154-0.044,0.232-0.06c0.079-0.013,0.156-0.024,0.232-0.034c0.153-0.021,0.301-0.037,0.443-0.05	C8.198,3.446,8.337,3.448,8.47,3.457c0.134,0.012,0.257,0.009,0.378,0.035C8.969,3.517,9.08,3.537,9.185,3.565	c0.104,0.028,0.2,0.05,0.288,0.08c0.089,0.035,0.169,0.066,0.24,0.102c0.284,0.129,0.433,0.232,0.433,0.232s-0.154,0.12-0.398,0.275	C9.687,4.295,9.62,4.334,9.549,4.378c-0.07,0.053-0.145,0.101-0.223,0.157C9.169,4.641,8.999,4.746,8.827,4.882	C8.74,4.947,8.65,5.008,8.559,5.07C8.471,5.142,8.382,5.213,8.291,5.281C8.245,5.316,8.199,5.349,8.152,5.381	C8.107,5.417,8.063,5.458,8.018,5.495c-0.09,0.075-0.182,0.147-0.275,0.218C7.57,5.88,7.378,6.018,7.208,6.189	C7.023,6.341,6.862,6.522,6.681,6.681C6.522,6.862,6.34,7.021,6.188,7.207C6.015,7.376,5.878,7.569,5.71,7.741	C5.64,7.834,5.568,7.927,5.492,8.016C5.456,8.062,5.414,8.105,5.378,8.15c-0.033,0.047-0.066,0.095-0.101,0.14	C5.209,8.381,5.138,8.47,5.066,8.558C5.004,8.649,4.943,8.739,4.879,8.826C4.742,9.002,4.64,9.16,4.534,9.311	C4.479,9.387,4.431,9.46,4.377,9.53C4.333,9.606,4.294,9.679,4.253,9.743C4.097,10,3.979,10.146,3.979,10.146"/><line x1="13.672" x2="18.633" y1="13.572" y2="18.534" fill="none" stroke="#0F0F0F" stroke-linecap="round" stroke-miterlimit="10" stroke-width="2.733"/></svg>
