<svg xmlns="http://www.w3.org/2000/svg" xmlns:xlink="http://www.w3.org/1999/xlink" id="Layer_1" width="38" height="35.975" x="0" y="0" enable-background="new 0 0 38 35.975" version="1.0" viewBox="0 0 38 35.975" xml:space="preserve"><g><path fill="#FFF" d="M4.438,23.973c0,0.469,0.375,0.719,1.656,0.719c0.5,0,0.656,0.063,0.656,0.313v0.625l-0.156,0.125 c0,0-2.875-0.063-3.625-0.063c-0.781,0-2.656,0.063-2.656,0.063l-0.25-0.094v-0.656c0-0.313,0.25-0.313,0.625-0.313 c0.625,0,1.563-0.531,2.094-1.813L9.75,6.129c0.313-0.75,0.969-0.969,1.313-0.969c0.656,0,1.156,0.313,1.406,0.969l6.313,16.75 c0.438,1.156,0.875,1.813,1.656,1.813h0.875c0.469,0,0.469,0.063,0.469,0.313v0.625l-0.156,0.125c0,0-3-0.063-4.188-0.063 c-1.125,0-4.5,0.063-4.5,0.063l-0.25-0.156v-0.594c0-0.25,0.25-0.313,0.813-0.313h0.844c0.531,0,0.781-0.344,0.781-0.813 c0-0.156,0-0.344-0.063-0.438l-1.938-5.25h-5.75c-0.625,0-0.781,0.031-0.969,0.438l-1.781,4.625 C4.5,23.536,4.438,23.786,4.438,23.973z M12.594,16.723L10,9.661l-2.688,6.688c0,0.281,0.031,0.375,0.594,0.375H12.594z"/></g><g><path fill="#BCBCBC" d="M27.158,21.718c0,0.292,0.233,0.447,1.032,0.447c0.312,0,0.408,0.039,0.408,0.194v0.39l-0.097,0.078 c0,0-1.791-0.039-2.259-0.039c-0.486,0-1.655,0.039-1.655,0.039l-0.155-0.059V22.36c0-0.194,0.155-0.194,0.39-0.194 c0.389,0,0.974-0.331,1.304-1.129L30.467,10.6c0.195-0.467,0.604-0.604,0.818-0.604c0.409,0,0.721,0.195,0.876,0.604l3.933,10.437 c0.273,0.72,0.546,1.129,1.032,1.129h0.545c0.292,0,0.292,0.039,0.292,0.194v0.39l-0.097,0.078c0,0-1.869-0.039-2.609-0.039 c-0.701,0-2.804,0.039-2.804,0.039l-0.155-0.098v-0.37c0-0.155,0.155-0.194,0.506-0.194h0.525c0.331,0,0.487-0.214,0.487-0.506 c0-0.098,0-0.215-0.039-0.272l-1.207-3.271h-3.583c-0.39,0-0.486,0.02-0.604,0.272l-1.109,2.882 C27.197,21.445,27.158,21.601,27.158,21.718z M32.24,17.201l-1.616-4.4l-1.675,4.167c0,0.175,0.02,0.233,0.37,0.233H32.24z"/></g></svg>